<?xml version="1.0" encoding="UTF-8"?><svg id="Layer_2" xmlns="http://www.w3.org/2000/svg" xmlns:xlink="http://www.w3.org/1999/xlink" viewBox="0 0 648 264.33"><defs><style>.cls-1{fill:#fff;}.cls-2{fill:#2a3b1a;}.cls-3{fill:#274a86;}.cls-4{fill:#416cb1;}.cls-5{clip-path:url(#clippath);}.cls-6{fill:none;}.cls-7{fill:url(#linear-gradient);}</style><clipPath id="clippath"><path class="cls-6" d="M419.07,9.4c-5.92-.16-11.85-.3-17.78-.43-3.77,1.07-7.42,5.22-11.19,6.31-5.44,4.19-10.99,5.33-16.39,9.55-10.68,2.02-21.33,4.08-31.96,6.19-1.71,0-3.42-.01-5.14-.02-14.01,1.56-27.99,3.21-41.96,4.94-4.32-1.58-8.64-3.15-12.97-4.71-12.51,2.46-24.99,4.98-37.45,7.57-3.99,1.48-7.98,2.96-11.96,4.45-6.62,.17-13.24,.36-19.86,.57-4.18,2.44-8.36,4.89-12.52,7.35-7.55,.27-15.1,.56-22.65,.87-5.45,1.85-10.89,3.7-16.33,5.57-4.62,.22-9.24,.44-13.85,.67-3.43,2.32-6.84,4.63-10.25,6.96-6.42,.34-12.85,.7-19.27,1.08-4.41,2.97-8.8,5.95-13.19,8.94,0-.01-18.69-2.27-26.19,1.75-7.7,3.88-52.09,57.75-52.24,58.27h0c198.68-17.26,398.49-17.23,597.16,.09-11.65-7.5-23.38-14.94-35.18-22.32-18.3-13.9-36.82-27.65-55.55-41.25-4.51-3.27-9.04-6.54-13.58-9.8-7.85-3.21-15.71-6.4-23.6-9.55-1.58-1.46-3.17-2.92-4.76-4.39-2.98-2.11-5.96-4.21-8.95-6.3-2.36-1.84-4.71-3.67-7.08-5.51-2.81-5.01-5.63-10.02-8.46-15.02-3.99-4.28-8.01-8.55-12.03-12.82-1.74-1.68-3.48-3.36-5.22-5.04-4.07-.14-8.13-.28-12.2-.41-3.43-.11-6.87-.21-10.31-.31-.11,0-.21,0-.31,0-2.27,2.24-4.53,4.49-6.79,6.74"/></clipPath><linearGradient id="linear-gradient" x1="-73.39" y1="444.99" x2="-71.98" y2="444.99" gradientTransform="translate(-41851 6957.27) rotate(90) scale(94.78 -94.78)" gradientUnits="userSpaceOnUse"><stop offset="0" stop-color="#c9da2b"/><stop offset=".07" stop-color="#c3d22b"/><stop offset=".17" stop-color="#b3bd2b"/><stop offset=".29" stop-color="#9a9b2b"/><stop offset=".42" stop-color="#776c2b"/><stop offset=".43" stop-color="#766b2b"/><stop offset=".78" stop-color="#4d672e"/><stop offset="1" stop-color="#396631"/></linearGradient></defs><g id="Layer_1-2"><g><g><path class="cls-3" d="M80.55,264.33c-18.42,0-30.02-12.07-30.02-28.9v-52.73c0-16.68,11.59-28.74,30.02-28.74s30.02,12.07,30.02,28.74v52.73c0,16.83-11.43,28.9-30.02,28.9Zm10.16-82.9c0-6.19-3.65-10.32-10.16-10.32s-10.01,4.13-10.01,10.32v55.27c0,6.19,3.65,10.32,10.01,10.32s10.16-4.13,10.16-10.32v-55.27Z"/><path class="cls-3" d="M161.54,261.95l-3.49-20.8h-18.74l-3.81,20.8h-18.42l21.28-105.77h22.07l21.12,105.77h-20.01Zm-12.39-77.18l-7.15,40.81h13.5l-6.35-40.81Z"/><path class="cls-3" d="M232.21,261.95v-43.36h-22.08v43.36h-19.69v-105.77h19.69v44.78h22.08v-44.78h19.85v105.77h-19.85Z"/><path class="cls-3" d="M296.69,264.33c-17.15,0-29.86-10.96-29.86-26.84v-81.31h20.01v81.31c0,6.19,3.49,9.69,9.85,9.69s10-3.49,10-9.69v-81.31h19.22v81.31c0,15.88-12.07,26.84-29.22,26.84Z"/></g><g><path class="cls-4" d="M429.94,261.95v-76.71l-4.29,23.03-11.28,53.68h-14.93l-10.64-53.68-4.13-23.03v76.71h-17.63v-105.77h26.52l10.96,53.68,3.34,19.53,3.49-19.53,10.8-53.68h26.36v105.77h-18.58Z"/><path class="cls-4" d="M496.33,221.45h-12.86v40.5h-19.69v-105.77h32.56c14.93,0,23.98,8.58,23.98,23.82v17.79c0,15.09-9.05,23.66-23.98,23.66Zm4.92-41.13c0-5.24-2.06-7.94-6.99-7.94h-10.8v33.83h10.8c4.92,0,6.99-2.7,6.99-7.94v-17.95Z"/><path class="cls-4" d="M561.12,264.33c-18.42,0-30.01-12.07-30.01-28.9v-52.73c0-16.68,11.59-28.74,30.01-28.74s30.02,12.07,30.02,28.74v52.73c0,16.83-11.43,28.9-30.02,28.9Zm10.16-82.9c0-6.19-3.65-10.32-10.16-10.32s-10,4.13-10,10.32v55.27c0,6.19,3.65,10.32,10,10.32s10.16-4.13,10.16-10.32v-55.27Z"/></g><g class="cls-5"><rect class="cls-7" x="25.91" y="2.66" width="597.16" height="132.72"/></g><path class="cls-2" d="M0,137.84c-.13-1.43,11.63-5.18,17.62-6.04,2.33-.33,4.91-1.38,6.67-2.9,18.83-16.3,36.17-34.14,52.3-53.27,2.13-2.53,4.43-3.81,7.84-3.9,5.86-.15,11.71-.93,17.58-1.02,3.36-.05,5.65-1.2,7.01-4.08,1.49-3.18,3.99-4.18,7.44-4.23,5.39-.07,10.77-.62,16.15-.78,3.99-.12,7.7-.21,9.88-4.5,.58-1.14,2.98-1.79,4.62-1.94,5.86-.55,11.75-.78,17.63-1.11,3.2-.18,6.55,.23,8.35-3.56,.39-.82,2.54-1.08,3.91-1.17,7.36-.46,14.73-.6,22.08-1.19,1.8-.15,4.04-1.28,5.12-2.66,1.85-2.39,3.76-3.61,6.91-3.57,5.24,.08,10.5-.26,15.75-.37,4.35-.09,8.53,.49,11.31-4.56,.99-1.81,5.52-1.99,8.51-2.5,10.82-1.85,21.69-3.49,32.57-5.09,1.27-.19,2.95-.57,3.84,0,8.67,5.6,17.81,2.34,26.75,1.48,10.75-1.03,21.32-2.14,32.3-1.28,7.21,.56,14.83-3.3,22.24-5.32,10.86-2.97,20.76-7.7,29.69-14.57,2.22-1.71,5.6-2.54,8.53-2.77,7.05-.56,14.31,.11,20.47-4.21,6.32-4.43,13.37-2.13,20.19-2.21,7-.08,12.07,2.17,15.75,8.39,4.91,8.3,10.6,16.17,16.21,24.04,1.38,1.93,3.74,3.49,5.99,4.5,5.41,2.44,10.39,5.08,13.79,10.24,1.24,1.88,4.04,3.23,6.39,3.9,9.54,2.7,18.05,7.06,25.98,12.91,20.97,15.47,41.52,31.35,62.67,46.19,11.47,8.05,24.52,13.87,36.82,20.69,1.04,.58,2.51,.4,3.79,.52,5.73,.53,17.42,4.38,17.35,5.92C432.48,117.47,215.52,117.47,0,137.84m31.68-8.26c.24,.29,.49,.57,.73,.86,192.37-16.33,385.77-16.47,578.17-.42-1.23-1.78-2.81-2.7-4.38-3.62-6.64-3.87-13.75-7.11-19.89-11.66-15.19-11.27-29.85-23.36-45.37-34.39-14.14-10.05-27.89-21.16-45.65-25.27-1.67-.39-3.41-2.04-4.38-3.55-2.62-4.13-6.11-6.99-10.81-8.55-5.35-1.78-8.7-5.26-11.56-10.19-4.83-8.3-10.89-15.95-16.52-23.83-.55-.77-1.32-1.96-2.01-1.98-7.46-.2-15.11-3.96-22.36-.28-7.51,3.82-15.09,6.05-23.67,5.48-2.39-.16-5.45,.69-7.26,2.15-10.26,8.3-22.23,12.88-34.83,16.19-3.23,.85-3.39,2.34-2.34,4.84,2.3,5.47,4.44,10.99,6.8,16.42,.54,1.23,1.59,2.55,2.77,3.15,12.91,6.6,18.94,17.61,21.13,31.13,.18,1.09,.64,2.14,.95,3.21,1.47,5.15,2.92,10.3,4.7,16.6-2.86-1.52-4.68-2.42-6.45-3.43-7.67-4.39-15.24-8.98-23.1-13.07-5.17-2.69-8.53-6.89-12.41-10.98-8.53-8.99-8.91-17.83-3.21-28.24,2.93-5.34,4.34-11.47,6.72-17.97-5.63,1.28-10.46,3.83-14.68,3.09-12.47-2.18-24.52,.22-36.7,1.48-8.05,.83-16.2,3.19-23.83-1.91-.86-.58-2.56-.16-3.83,.03-9.25,1.41-18.42,3.57-27.7,4.24-7.31,.53-11.44,3.65-14.7,9.67-11.48,21.18-27.57,38.82-44.9,56.98,9.39-19.89,22.87-36.81,25.96-58.16-5.28-1.36-8.48,.2-11.2,4.59-10.59,17.1-22.28,33.37-35.99,48.12-.87,.94-1.53,2.05-2.37,3.02-.83,.96-1.75,1.83-2.63,2.74,7.71-16.9,17.58-32.76,20.36-51.48-5.67-1.06-10.2-.32-12.64,5.37-.81,1.89-2.27,3.49-3.31,5.29-8.83,15.19-19.16,29.24-30.92,42.18,6.2-15.55,12.48-31.08,18.97-46.86-7.88-1.33-12.9,.16-15.76,6.5-1.1,2.44-3.06,4.51-4.54,6.8-8.35,12.91-17.3,25.29-29.48,35.18,7.74-12.73,14.81-25.69,15.27-41.08-5.13-.95-9.04-.1-11.73,5.03-2.67,5.08-6.42,9.6-9.42,14.52-6.61,10.84-17.52,17.18-26.45,25.62,5.99-11.57,14.29-22.12,13.92-36.08-4.03-.51-6.91,.41-9.68,3.41-11.15,12.05-22.41,23.96-33.67,35.8-4.45,4.68-9.43,8.87-14.14,13.3"/><path class="cls-2" d="M471.29,108.65c-5.29-2.51-9.83-4.52-14.23-6.81-1.32-.68-2.54-1.98-3.27-3.29-5.77-10.3-11.96-20.43-17.02-31.08-2.3-4.85-2.27-10.78-3.15-16.25-.68-4.24-.75-8.6-1.73-12.77-2.25-9.53,4.36-16.53,7.57-24.8,2.96,11.18,5.91,22.35,8.78,33.54,1.47,5.72,3.35,11.39,4.09,17.2,.84,6.6,4.44,11.06,9.5,14.73,3.58,2.6,5.62,5.78,6.17,10.24,.74,6.13,2.06,12.2,3.29,19.28"/><path class="cls-2" d="M474.32,45.23c7.71,5.6,17.23,8.93,20.53,18.68,.48,1.41,3.22,2.79,5.04,2.97,9.02,.88,12.76,5.7,13.98,14.34,1.33,9.37,4.24,18.53,5.69,28.11-1.07-1.14-2.14-2.27-3.22-3.4-10.6-11.16-21.4-22.18-32.04-33.39-2.21-2.33-4.04-5.38-5.02-8.41-2.01-6.18-3.34-12.58-4.96-18.89"/><path class="cls-2" d="M451.69,36.08c4.98,2.39,9.76,5.03,15.43,1,1.4,6.8,3.1,12.93,3.83,19.17,1.37,11.62,6.44,20.88,16.64,27.02,9.81,5.91,7.69,15.87,9.65,24.47-.56,.44-1.12,.87-1.68,1.31-1.52-2.16-2.8-4.54-4.61-6.43-8.84-9.29-17.96-18.35-26.9-27.61-1.69-1.75-3.12-4.08-3.79-6.39-1.73-5.98-2.89-12.11-4.45-18.15-1.18-4.58-2.6-9.11-4.13-14.4"/><path class="cls-2" d="M305.84,44.69c9.8,22.77,4.39,42.75-9.08,62.42-3.1-9.65-6.24-18.49-8.74-27.5-.7-2.54-.31-6.06,1.01-8.33,5.2-8.96,11.01-17.6,16.81-26.58"/><path class="cls-2" d="M434.67,104.46c-7.26-10.48-14.82-20.78-21.8-31.47-1.74-2.66-1.38-6.64-2-10.01-.97-5.28-1.27-10.81-3.14-15.78-1.91-5.08-1.84-9.41,.86-13.97,1.19-2.02,2.02-4.24,3.4-7.19,.44,2.03,.83,3.09,.89,4.17,.5,8.67,3.8,15.97,9.31,22.95,3.64,4.62,5.91,10.71,7.26,16.49,2.66,11.44,4.24,23.11,6.24,34.69-.34,.04-.68,.08-1.01,.13"/><path class="cls-2" d="M266.88,41.99c3.83,20.79,7.56,41.39,11.24,61.99-6.84-8.32-14.39-16-16.97-26.7-1.01-4.18-2.26-8.31-3.2-12.51-1.97-8.83,.92-16.3,8.94-22.78"/><path class="cls-2" d="M339.03,102.81c-9.16-18.41-19.1-36.22-22.06-56.53-.29-2.03,1.36-4.33,2.56-7.81,1.58,2.41,2.36,3.35,2.87,4.4,5.67,11.64,11.14,23.36,16.84,34.95,1.98,4.03,2.82,7.9,1.78,12.34-.97,4.14-1.35,8.42-1.99,12.64"/><path class="cls-2" d="M227.58,103.01c5.13-19.34,10.35-38.66,15.67-57.98,.62-.03,1.25-.05,1.87-.08,.93,3.5,2.4,6.97,2.65,10.52,.38,5.54-.03,11.14-.19,16.72-.03,1.08-.18,2.32-.74,3.19-6.09,9.36-12.23,18.67-18.29,28.01-.32-.13-.64-.26-.96-.39"/><path class="cls-2" d="M541.14,114.34c-6.97-12.81-13.66-24.94-20.41-37.06,.28-.24,.56-.49,.83-.73,9.28,8.91,18.49,17.86,27.92,27.14-2.7,3.43-5.3,6.76-8.34,10.65"/><path class="cls-2" d="M401.42,64.43c-7.96-4.73-15.92-9.42-24.61-14.48,2.27-5.04,4.92-10.87,7.98-17.56,5.92,11.3,11.37,21.8,16.63,32.04"/><path class="cls-2" d="M286.01,42.97c-1.04,8.76-1.91,16.11-2.94,24.86-2.09-4.9-3.82-8.45-5.08-12.15-.42-1.23-.09-3.15,.68-4.22,1.93-2.68,4.3-5.05,7.34-8.49"/><path class="cls-2" d="M428.23,49.95c-8.34-9.69-9.03-13.12-3.69-21.58,1.3,7.54,2.45,14.26,3.69,21.58"/><path class="cls-2" d="M340.24,58.75c-2.76-3.98-5.53-7.95-8.38-12.02,1.69-2.01,3.2-3.81,5.55-6.61,1.4,6.7,2.59,12.41,3.77,18.12-.32,.17-.63,.34-.95,.5"/><path class="cls-2" d="M403.85,54.35c-2.61-4.06-5.68-7.93-7.64-12.28-.79-1.75,.87-4.55,1.42-6.87,.48,0,.96,.02,1.44,.03,1.95,6.2,3.89,12.4,5.82,18.6-.35,.17-.69,.34-1.04,.52"/><path class="cls-1" d="M486.14,52.88c-.79-.04-1.57-.07-2.36-.11-5.03-.23-10.06-.45-15.1-.65-5.03-.21-10.07-.4-15.1-.59-.79-.03-1.58-.06-2.36-.09-.49-.02-.98-.04-1.48-.05-1.51,.59-3.02,1.18-4.52,1.77-2.94,17.63-5.84,35.27-8.7,52.91,1.55,4.62,3.08,9.25,4.62,13.87,1.77,.06,3.54,.12,5.31,.18,.89-2.29,1.78-4.59,2.67-6.88,5.68,.21,11.35,.42,17.03,.66,5.68,.23,11.35,.48,17.03,.74,.7,2.36,1.39,4.72,2.09,7.08,1.77,.08,3.53,.17,5.3,.25,1.91-4.48,3.82-8.97,5.74-13.45-1.41-17.82-2.85-35.63-4.33-53.45-1.45-.71-2.91-1.42-4.36-2.13-.49-.02-.98-.05-1.48-.07m-38.24,38.81c1.72-12.27,3.46-24.54,5.21-36.8,5.15,.19,10.29,.39,15.44,.6,5.15,.21,10.29,.44,15.43,.67,.73,12.37,1.46,24.74,2.16,37.11-1.37,1.38-2.73,2.76-4.09,4.14-5.07-.23-10.14-.45-15.21-.66-5.07-.21-10.14-.41-15.21-.59-1.24-1.49-2.49-2.98-3.74-4.46m1.29,12.41c5.77,.21,11.55,.43,17.32,.67,5.77,.24,11.55,.49,17.32,.76l-.13,2.76c-5.77-.27-11.54-.52-17.31-.76-5.77-.24-11.54-.46-17.31-.67,.03-.92,.07-1.84,.1-2.76m31.45,11.64c.29,1.48,.57,2.96,.86,4.44-5.2-.24-10.4-.46-15.6-.68-5.2-.21-10.4-.42-15.6-.61,.41-1.45,.82-2.9,1.22-4.35-.58-.02-1.17-.04-1.75-.06-1.42,3.69-2.83,7.39-4.25,11.08,.96,.03,1.92,.07,2.87,.1,.38-1.34,.75-2.69,1.13-4.03,5.42,.2,10.84,.41,16.25,.63,5.42,.22,10.83,.46,16.25,.71,.27,1.37,.53,2.74,.79,4.11,.96,.04,1.91,.09,2.87,.13-1.1-3.8-2.21-7.6-3.32-11.4-.58-.03-1.17-.05-1.75-.08"/><path class="cls-1" d="M107.87,101.93c-1.09-.4-2.12-.77-3.18-1.15,.91-5.2,1.99-10.2,6.68-13.52,2.2-1.56,4.55-2.72,7.19-3.3,2.61-.57,4.7,.54,5.69,2.98,.37,.91,.81,1.8,1.11,2.74,1.65,5.17,5.69,8.18,10.03,10.92,.31,.2,.62,.39,.93,.58,.06,.04,.11,.1,.26,.24-.29,.86-.61,1.77-.95,2.79-4.43-1.08-8.2-3.19-11.59-6.53-.1,2.12-.23,3.95-.25,5.79,0,.38,.36,.78,.61,1.13,2.89,4.04,6.03,7.93,7.9,12.58,1.36,3.38,3.25,7.78,4.61,11.32-1.61,.45-3.66-.13-5.13,.28-.77-1.88-1.52-3.66-2.24-5.44-2.16-5.34-6-9.45-9.94-13.5-1.2-1.23-2.42-2.45-3.68-3.62-1.17-1.07-1.43-2.42-1.37-3.88,.1-2.41,.22-4.81,.33-7.21,.05-1.16,.09-2.32,.13-3.49-2.91,.24-4.71,2.83-7.15,10.29"/><path class="cls-1" d="M110,130.07c-1.38-.95-2.39-2.28-3.66-3.16,3.96-4.27,9.47-10.71,9.84-16.96,.39,.28,.66,.43,.87,.64,1.16,1.17,2.28,2.37,3.44,3.53,.49,.49,.59,.97,.37,1.66-.77,2.41-2.08,4.5-3.69,6.4-1.55,1.83-5.49,6.02-7.17,7.88"/><path class="cls-1" d="M121.65,71.42c2.82-.14,5.19,1.97,5.32,4.75,.13,2.66-2.08,5.08-4.76,5.24-2.73,.16-5.28-2.07-5.39-4.73-.12-2.78,2.02-5.12,4.84-5.26"/><path class="cls-1" d="M246.28,90.56c-1.35,2.98-1.34,2.94-4.43,2.81-2.26-.1-4.52-.15-6.78-.08-1.95,.06-3.32-.83-4.45-2.26-.35-.44-.69-.89-1.02-1.34-1.02-1.41-1.03-1.43-2.57-.48-1.47,.9-2.93,1.82-4.55,2.84,1.21,.89,2.22,1.61,3.2,2.36,2.31,1.76,3.86,4.06,4.85,6.75,1.01,2.74,.39,5.38-.84,7.83-1.29,2.56-2.92,4.94-4.3,7.45-.83,1.52-1.99,2.15-3.69,1.93-.5-.06-1.02,.02-1.64,.04,1.04-2.16,2.1-4.15,2.98-6.22,1.13-2.65,1.61-5.4,.82-8.28-.4-1.47-1.39-2.38-2.63-3.03-1.99-1.03-4.08-1.89-6.07-2.93-1.9-.99-3.65-2.18-4.06-4.53-.34-1.99,.61-3.58,1.85-4.86,3.85-3.96,7.84-7.78,11.82-11.63,.37-.36,.85-.61,1.31-.85,1.33-.69,2.26-.33,3.34,.69,2.48,2.36,3.67,5.37,4.65,8.5,.08,.24,.2,.47,.27,.71,.64,2.43,2.36,3.22,4.75,3.36,2.19,.13,4.36,.59,6.53,.94,.23,.04,.45,.2,.66,.3"/><path class="cls-1" d="M205.35,125.45c-7.75,.5-14.76-6.13-14.55-14.37,.18-7.31,6.24-13.49,13.73-13.67,7.71-.19,15.05,5.9,14.52,14.95-.39,6.79-5.98,13.05-13.7,13.1m7.95-14.32c.07-4.61-4.63-8.44-8.84-8.09-4.27,.34-8.35,4.14-7.88,9.18,.42,4.48,4.11,7.85,8.7,7.63,4.7-.22,8.25-4.02,8.01-8.72"/><path class="cls-1" d="M246.46,124.26c-7.22,.43-13.39-5.22-14.26-11.87-1.26-9.58,5.9-15.11,11.46-15.88,10.78-1.5,16.18,6.44,16.62,12.56,.61,8.54-6.07,15.34-13.81,15.19m8.15-14.13c-.14-4.29-3.67-8.4-8.73-8.19-4.88,.2-8.37,4.08-8.16,8.61,.23,4.92,3.81,8.19,8.66,8.11,4.72-.07,8.23-3.84,8.23-8.53"/><path class="cls-1" d="M236.11,78.93c-3.21,.08-6.1-2.55-6.01-5.71,.1-3.77,2.62-5.86,5.81-5.91,3.47-.05,5.84,2.24,6.02,5.69,.16,3.16-2.58,5.85-5.82,5.93"/><path class="cls-1" d="M362.39,69.57c-2.87,1.13-3.81,3.22-4.45,5.51-.07,.25,.06,.76,.24,.84,1.45,.66,1.22,1.91,1.21,3.09-.01,1.85-.03,3.69-.06,5.54-.02,1.4-.7,2.07-2.16,2.05-5.31-.09-4.99,.44-4.94-4.79,.04-3.64-.08-7.27,1.54-10.7,1.57-3.33,3.91-5.72,7.62-6.69,.42-.11,.94-.7,1.02-1.15,.76-3.95,2.75-5.7,6.8-5.65,14.35,.16,28.7,.43,43.04,.81,4.02,.11,6.09,2.06,6.54,5.92,.05,.42,.46,1.03,.83,1.14,5.82,1.75,8.03,6.19,8.63,11.56,.33,2.94,.05,5.96,0,8.94-.02,1.29-.67,1.99-2.07,1.94-5.43-.16-5.13,.33-4.94-4.95,.05-1.3,.02-2.61,.14-3.91,.05-.54,.29-1.32,.68-1.52,1.03-.53,.9-1.23,.63-2.03-.66-2.04-1.52-3.94-4.11-4.81l-.05,1.88c-.44,16.39-.89,32.78-1.33,49.17-.07,2.48-.53,2.9-3.02,2.82-1.9-.06-3.8-.1-5.71-.15-1.75-.05-2.32-.63-2.3-2.4,.02-1.56,.07-3.12,.11-4.83-.75-.06-1.34-.14-1.92-.15-9.86-.23-19.72-.39-29.57-.6-1.53-.03-2.05,.44-1.92,1.92,.09,1.08-.03,2.17-.03,3.26,0,1.43-.72,2.08-2.12,2.06-2.17-.04-4.35-.04-6.52-.09-1.88-.04-2.41-.59-2.39-2.49,.06-6.51,.14-13.03,.21-19.54,.11-9.94,.22-19.87,.33-29.81,0-.73,.02-1.46,.02-2.2m49.23,18.42c.16-6.21,.32-12.22,.46-18.24,.08-3.31-1.71-5.14-5.11-5.22-10.88-.27-21.77-.48-32.65-.63-3.45-.05-5.31,1.75-5.37,5.17-.08,5.42-.08,10.85-.25,16.27-.05,1.62,.52,1.96,2.05,1.97,13.01,.12,26.02,.4,39.02,.72,.54,.01,1.08-.03,1.86-.05m-4.06,19.66c2.19,.09,4.13-1.68,4.22-3.87,.1-2.18-1.69-4.11-3.9-4.2-2.21-.09-4.16,1.7-4.23,3.87-.07,2.2,1.7,4.11,3.91,4.2m-35.5-.68c2.25,0,4-1.78,4.01-4.04,0-2.21-1.86-4.08-4.04-4.05-2.28,.04-4,1.79-4,4.06,0,2.26,1.77,4.03,4.02,4.02"/><path class="cls-1" d="M283.44,118.26c.01,1.21,.02,2.2,.04,3.18,.02,1.4-.64,2.19-2.07,2.21-2.53,.05-5.07,.08-7.6,.09-1.36,0-2.03-.74-2.05-2.06-.13-8.25-.25-16.5-.35-24.76-.03-2.08,1.2-3.51,2.53-5.01,1.13-1.27,1.89-2.88,2.65-4.42,.45-.91,.06-1.54-1.06-1.92-1.4-.48-2.78-1.16-3.97-2.01-1.3-.93-1.31-1.96,.06-2.77,1.64-.97,3.47-1.74,5.32-2.2,.79-.2,1.84,.61,3,1.05,.61-1.25,1.34-2.81,2.15-4.34,1.03-1.95,2.16-3.85,3.2-5.8,1.23-2.29,3.25-3.36,5.77-3.78,8.62-1.44,17.3-1.28,25.96-.59,2.5,.2,4.98,.72,7.47,1.06,1.63,.22,2.84,1.03,3.62,2.4,1.75,3.06,3.44,6.16,5.14,9.25,.32,.58,.6,1.17,.77,1.51,1.19-.4,2.4-1.26,3.3-1.02,1.93,.53,3.8,1.48,5.49,2.55,.99,.63,.54,1.8-.34,2.36-1.3,.82-2.7,1.52-4.14,2.08-.92,.36-1.18,.74-.94,1.7,.46,1.8,1.13,3.42,2.69,4.6,1.89,1.43,2.74,3.35,2.72,5.73-.08,7.87-.09,15.74-.14,23.61-.01,1.9-.57,2.45-2.48,2.46-2.26,.01-4.52,0-6.78-.03-1.93-.03-2.44-.56-2.48-2.48-.02-.92,0-1.85,0-2.9-15.82-.03-31.65,.05-47.47,.23m44.88-34.8c-1.76-3.79-3.48-7.24-4.95-10.79-.64-1.55-1.66-2.06-3.16-2.18-2.06-.16-4.12-.5-6.18-.47-6.87,.11-13.73,.35-20.6,.6-1.34,.05-2.2,.69-2.75,2-1.44,3.4-3.03,6.73-4.54,10.1-.12,.27-.12,.58-.19,.94,14.12-.15,28.24-.22,42.37-.21m9.5,15.78c.02-2.39-1.86-4.28-4.27-4.31-2.37-.03-4.35,1.89-4.38,4.24-.02,2.27,2.03,4.35,4.3,4.37,2.31,.02,4.33-1.98,4.34-4.3m-52.88,.17c-.03-2.44-1.91-4.27-4.36-4.22-2.41,.04-4.25,1.98-4.19,4.41,.06,2.31,1.98,4.18,4.3,4.19,2.35,0,4.28-1.98,4.26-4.38"/><path class="cls-1" d="M152.48,101.24c.35-1.7,.65-3.52,1.12-5.28,.52-1.94,1.29-3.8,2.74-5.27,1.34-1.36,2.97-1.92,4.87-1.49,1.17,.26,2.03,1,2.71,1.91,.82,1.1,1.54,2.27,2.31,3.41,.89,1.32,1.79,2.65,2.7,3.96,.1,.15,.31,.27,.49,.31,2.48,.55,4.96,1.1,7.43,1.64,.87,.19,1.66,.52,1.97,1.42,.48,1.36-.13,3.02-2.36,2.84-3.14-.25-6.28-.53-9.43-.77-.57-.05-1.07-.24-1.45-.67-.7-.81-1.38-1.64-2.07-2.45-.15-.18-.3-.37-.55-.68-.08,.92-.18,1.69-.22,2.47-.04,.76-.03,1.52-.05,2.28-.01,.5,.28,.81,.8,.82,2.34,.07,4.67,.13,7.01,.21,.65,.02,1.3,.05,1.95,.08,.99,.04,1.66,.53,2.09,1.39,.85,1.71,1.71,3.42,2.55,5.14,.99,2.03,1.97,4.07,2.93,6.12,.29,.61,.51,1.24,.35,1.96-.41,1.79-2.92,2.65-4.2,1.33-.84-.87-1.48-1.93-2.16-2.94-1.28-1.9-2.52-3.81-3.77-5.73-.16-.25-.32-.34-.62-.27-.39,.09-.79,.13-1.23,.2,.27,1.33,.33,2.61,.16,3.92-.69,5.4-4.8,9.58-10.21,10.36-5.85,.84-11.4-2.64-13.18-8.26-.53-1.69-.62-3.42-.39-5.17,.44-3.48,2.21-6.17,5.05-8.19,.3-.21,.41-.43,.39-.79-.15-2.78-.29-5.55-.42-8.33-.02-.35-.12-.55-.46-.68-.51-.19-1-.43-1.5-.66-.65-.31-.92-1-.63-1.61,.29-.62,.98-.87,1.65-.58,.8,.35,1.59,.72,2.39,1.06,.62,.26,.91,.71,.94,1.38,.08,1.76,.17,3.53,.26,5.29,0,.16,.03,.31,.04,.35m3.7,4.89c-5.37,.28-9.21,4.68-9.13,9.53,.11,6.15,5.2,9.75,10.05,9.51,5.23-.26,9.35-4.72,9.11-9.97-.24-5.28-4.81-9.35-10.03-9.07"/><path class="cls-1" d="M164.49,78.6c2.98-.12,5.32,2.05,5.43,5.05,.11,2.71-2.15,5.08-4.96,5.23-2.91,.15-5.34-2.08-5.46-5.03-.12-2.76,2.13-5.12,4.99-5.24"/><path class="cls-1" d="M163.92,113.64c-1.65,.21-3.22,.29-4.8,.15-1.22-.11-2.42-.35-3.5-.98-1.39-.8-2.13-2.05-2.51-3.54-.03-.11,.11-.33,.23-.39,3.2-1.63,7.32-.62,9.41,2.29,.53,.73,.95,1.51,1.18,2.47"/><path class="cls-1" d="M95.39,105.57c-.16-.38-.33-.76-.49-1.14-.64-1.54-1.95-2.23-3.58-1.85-1.65,.38-3.12,1.12-4.49,2.11-2.92,2.12-3.58,5.27-4.13,8.55,.67,.24,1.32,.47,2.01,.71,1.5-4.71,2.61-6.35,4.44-6.52-.02,.74-.04,1.47-.07,2.2-.06,1.51-.12,3.03-.17,4.55-.03,.93,.14,1.77,.88,2.44,.8,.73,1.57,1.49,2.33,2.26,2.49,2.53,4.94,5.1,6.33,8.46,.46,1.12,.94,2.23,1.44,3.41,.92-.27,2.22,.08,3.23-.21-.88-2.23-2.1-4.99-2.98-7.11-1.21-2.92-3.2-5.36-5.04-7.89-.16-.22-.39-.47-.39-.7,0-1.16,.43-2.29,.77-3.97,.34-1.67,.57-4.61,.57-4.61-.22-.23-.44-.47-.66-.7"/><path class="cls-1" d="M86.17,131.68c-.87-.59-1.51-1.43-2.32-1.97,2.48-2.7,5.92-6.79,6.11-10.73,.24,.18,.42,.27,.55,.4,.73,.73,1.44,1.48,2.18,2.21,.31,.31,.38,.61,.24,1.04-.47,1.52-1.29,2.85-2.29,4.05-.96,1.16-3.43,3.82-4.48,5"/><path class="cls-1" d="M93.11,93.31c2.33-.14,4.3,1.6,4.43,3.91,.13,2.21-1.67,4.23-3.89,4.39-2.25,.15-4.37-1.68-4.49-3.89-.12-2.31,1.63-4.26,3.96-4.4"/><path class="cls-1" d="M106.67,100.44c1.1-.06,2.02,.76,2.08,1.85,.06,1.04-.8,2-1.84,2.07-1.06,.07-2.06-.8-2.11-1.85-.05-1.09,.78-2.01,1.87-2.07"/><path class="cls-1" d="M93.42,106.68c.33,.22,.7,.39,1.15,.49,1.65,.38,3.29,.35,4.96,.06,3.56-.62,5.56-3.16,7.53-5.85-.5-.51-.97-1-1.48-1.52-3.46,3.56-8.3,5.47-11.4,3.5-.25,1.11-.51,2.22-.76,3.33"/></g></g></svg>